HIERARCHY
ROOT SpineBase
{
  OFFSET 0.000000 0.000000 0.000000
  CHANNELS 6 Xposition Yposition Zposition Zrotation Xrotation Yrotation
  JOINT SpineMid
  {
    OFFSET -0.000000 28.947225 0.000000
    CHANNELS 3 Zrotation Xrotation Yrotation
    JOINT SpineShoulder
    {
      OFFSET -0.172210 21.478847 -0.680303
      CHANNELS 3 Zrotation Xrotation Yrotation
      JOINT Neck
      {
        OFFSET -0.117265 7.106100 -0.521892
        CHANNELS 3 Zrotation Xrotation Yrotation
        JOINT Head
        {
          OFFSET -0.964493 12.495718 -0.148626
          CHANNELS 3 Zrotation Xrotation Yrotation
          End Site
          {
            OFFSET 0 0 0
          }
        }
      }
      JOINT ShoulderLeft
      {
        OFFSET -16.475409 -5.025916 3.110435
        CHANNELS 3 Zrotation Xrotation Yrotation
        JOINT ElbowLeft
        {
          OFFSET -0.967385 -19.181027 1.453489
          CHANNELS 3 Zrotation Xrotation Yrotation
          JOINT WristLeft
          {
            OFFSET -0.213269 -19.277096 -2.935172
            CHANNELS 3 Zrotation Xrotation Yrotation
            JOINT HandLeft
            {
              OFFSET -0.647025 -5.446407 -0.044619
              CHANNELS 3 Zrotation Xrotation Yrotation
              JOINT HandTipLeft
              {
                OFFSET -0.568921 -4.922017 -1.917210
                CHANNELS 3 Zrotation Xrotation Yrotation
                End Site
                {
                  OFFSET 0 0 0
                }
              }
              JOINT ThumbLeft
              {
                OFFSET 2.201278 -0.181085 -2.726287
                CHANNELS 3 Zrotation Xrotation Yrotation
                End Site
                {
                  OFFSET 0 0 0
                }
              }
            }
          }
        }
      }
      JOINT ShoulderRight
      {
        OFFSET 14.138717 -4.474846 -8.229018
        CHANNELS 3 Zrotation Xrotation Yrotation
        JOINT ElbowRight
        {
          OFFSET 3.051045 -19.096405 -0.149771
          CHANNELS 3 Zrotation Xrotation Yrotation
          JOINT WristRight
          {
            OFFSET 1.185024 -19.019130 -4.456300
            CHANNELS 3 Zrotation Xrotation Yrotation
            JOINT HandRight
            {
              OFFSET -0.731515 -6.623224 -0.720520
              CHANNELS 3 Zrotation Xrotation Yrotation
              JOINT HandTipRight
              {
                OFFSET 0.756649 -5.144515 -2.160474
                CHANNELS 3 Zrotation Xrotation Yrotation
                End Site
                {
                  OFFSET 0 0 0
                }
              }
              JOINT ThumbRight
              {
                OFFSET 1.565370 -0.130470 -2.790613
                CHANNELS 3 Zrotation Xrotation Yrotation
                End Site
                {
                  OFFSET 0 0 0
                }
              }
            }
          }
        }
      }
    }
  }
  JOINT HipLeft
  {
    OFFSET -6.027745 0.577048 -1.543402
    CHANNELS 3 Zrotation Xrotation Yrotation
    JOINT KneeLeft
    {
      OFFSET 1.997551 -24.936502 5.320220
      CHANNELS 3 Zrotation Xrotation Yrotation
      JOINT AnkleLeft
      {
        OFFSET 5.239848 -31.477555 6.961729
        CHANNELS 3 Zrotation Xrotation Yrotation
        JOINT FootLeft
        {
          OFFSET -3.281503 -2.595117 -10.895560
          CHANNELS 3 Zrotation Xrotation Yrotation
          End Site
          {
            OFFSET 0 0 0
          }
        }
      }
    }
  }
  JOINT HipRight
  {
    OFFSET 4.855942 0.710377 -5.060820
    CHANNELS 3 Zrotation Xrotation Yrotation
    JOINT KneeRight
    {
      OFFSET 7.405053 -24.686481 3.898017
      CHANNELS 3 Zrotation Xrotation Yrotation
      JOINT AnkleRight
      {
        OFFSET 3.347494 -31.701172 10.722040
        CHANNELS 3 Zrotation Xrotation Yrotation
        JOINT FootRight
        {
          OFFSET -3.105732 -2.935754 -10.345833
          CHANNELS 3 Zrotation Xrotation Yrotation
          End Site
          {
            OFFSET 0 0 0
          }
        }
      }
    }
  }
}
MOTION
Frames: 13
Frame Time: 0.033333
58.622058 66.988679 339.060912 0.000000 0.000000 17.909930 -0.000000 0.000000 -17.909930 -0.000000 0.000000 0.000000 -0.000000 0.000000 0.000000 0.000000 0.000000 0.000000 -0.000000 0.000000 0.000000 -0.000000 0.000000 0.000000 -0.000000 0.000000 0.000000 -0.000000 0.000000 0.000000 0.000000 0.000000 0.000000 0.000000 0.000000 0.000000 -0.000000 0.000000 0.000000 -0.000000 0.000000 0.000000 -0.000000 0.000000 0.000000 -0.000000 0.000000 0.000000 0.000000 0.000000 0.000000 0.000000 0.000000 0.000000 -0.000000 0.000000 -17.909930 -0.000000 0.000000 0.000000 -0.000000 0.000000 0.000000 0.000000 0.000000 0.000000 -0.000000 0.000000 -17.909930 -0.000000 0.000000 0.000000 -0.000000 0.000000 0.000000 0.000000 0.000000 0.000000
58.595370 66.980585 339.066448 0.009947 -0.040813 17.942314 0.003109 0.041892 -17.942311 -0.000000 0.000000 0.000000 -0.000000 0.000000 0.000000 0.000000 0.000000 0.000000 -0.000000 0.000000 0.000000 -0.000000 0.000000 0.000000 -0.000000 0.000000 0.000000 -1.001377 -2.542383 0.666839 0.000000 0.000000 0.000000 0.000000 0.000000 0.000000 -0.000000 0.000000 0.000000 -0.000000 0.000000 0.000000 0.308091 0.755781 -0.118973 -1.090979 -0.048588 0.541895 0.000000 0.000000 0.000000 0.000000 0.000000 0.000000 0.003109 0.041892 -17.942311 -0.000000 0.000000 0.000000 0.617742 -1.700342 -0.466451 0.000000 0.000000 0.000000 0.003109 0.041892 -17.942311 -0.000000 0.000000 0.000000 -0.000000 0.000000 0.000000 0.000000 0.000000 0.000000
58.571458 66.972629 339.068731 0.024969 -0.078177 17.954936 0.000346 0.082067 -17.954920 -0.000000 0.000000 0.000000 -0.000000 0.000000 0.000000 0.000000 0.000000 0.000000 -0.000000 0.000000 0.000000 -0.000000 0.000000 0.000000 -0.000000 0.000000 0.000000 -1.881316 -4.832233 1.230195 0.000000 0.000000 0.000000 0.000000 0.000000 0.000000 -0.000000 0.000000 0.000000 -0.000000 0.000000 0.000000 0.581727 1.336264 -0.217507 -2.022178 -0.038641 0.981327 0.000000 0.000000 0.000000 0.000000 0.000000 0.000000 0.000346 0.082067 -17.954920 -0.000000 0.000000 0.000000 1.153680 -3.198150 -0.881048 0.000000 0.000000 0.000000 0.000346 0.082067 -17.954920 -0.000000 0.000000 0.000000 -0.000000 0.000000 0.000000 0.000000 0.000000 0.000000
58.550321 66.964811 339.067762 0.045065 -0.112090 17.947826 -0.008331 0.120522 -17.947773 -0.000000 0.000000 0.000000 -0.000000 0.000000 0.000000 0.000000 0.000000 0.000000 -0.000000 0.000000 0.000000 -0.000000 0.000000 0.000000 -0.267879 0.768658 -0.087296 -2.372120 -7.632842 1.757619 0.000000 0.000000 0.000000 0.000000 0.000000 0.000000 -0.000000 0.000000 0.000000 -0.000000 0.000000 0.000000 0.816979 1.733481 -0.292459 -2.791322 0.045255 1.327117 0.000000 0.000000 0.000000 0.000000 0.000000 0.000000 0.442317 -0.749473 -17.851979 -1.386799 1.324700 -0.124617 2.293768 -5.076146 -1.169858 0.000000 0.000000 0.000000 -0.008331 0.120522 -17.947773 -0.000000 0.000000 0.000000 -0.000000 0.000000 0.000000 0.000000 0.000000 0.000000
58.531960 66.957130 339.063539 0.070231 -0.142552 17.921009 -0.022960 0.157246 -17.920890 -0.000000 0.000000 0.000000 -0.000000 0.000000 0.000000 0.000000 0.000000 0.000000 -0.000000 0.000000 0.000000 -0.000000 0.000000 0.000000 -0.209587 1.091695 -0.125945 -3.085866 -9.723098 2.160113 0.000000 0.000000 0.000000 0.000000 0.000000 0.000000 -0.000000 0.000000 0.000000 -0.000000 0.000000 0.000000 1.010794 1.942796 -0.341402 -3.396382 0.213235 1.586290 0.000000 0.000000 0.000000 0.000000 0.000000 0.000000 0.591303 -0.902721 -17.788544 -1.800679 1.607862 -0.170070 2.838102 -6.178210 -1.437100 0.000000 0.000000 0.000000 -0.022960 0.157246 -17.920890 -0.000000 0.000000 0.000000 -0.000000 0.000000 0.000000 0.000000 0.000000 0.000000
58.516374 66.949587 339.056064 0.100467 -0.169561 17.874515 -0.043574 0.192213 -17.874294 -0.000000 0.000000 0.000000 -0.000000 0.000000 0.000000 0.000000 0.000000 0.000000 -0.000000 0.000000 0.000000 -0.000000 0.000000 0.000000 -0.078374 1.446892 -0.170235 -3.772303 -11.582403 2.487018 0.000000 0.000000 0.000000 0.000000 0.000000 0.000000 -0.000000 0.000000 0.000000 -0.000000 0.000000 0.000000 1.161114 1.962931 -0.362760 -3.835365 0.470176 1.763578 0.000000 0.000000 0.000000 0.000000 0.000000 0.000000 0.742870 -1.012931 -17.703012 -2.191109 1.813930 -0.219591 3.254603 -6.920551 -1.640951 0.000000 0.000000 0.000000 -0.043574 0.192213 -17.874294 -0.000000 0.000000 0.000000 -0.000000 0.000000 0.000000 0.000000 0.000000 0.000000
58.497543 66.945415 339.045510 0.133363 -0.198825 17.812059 -0.066151 0.230089 -17.811694 -0.000000 0.000000 0.000000 -0.000000 0.000000 0.000000 0.000000 0.000000 0.000000 -0.000000 0.000000 0.000000 -0.000000 0.000000 0.000000 -0.005970 2.391007 -0.283865 -4.563752 -14.747363 2.926851 0.000000 0.000000 0.000000 0.000000 0.000000 0.000000 -0.000000 0.000000 0.000000 -0.000000 0.000000 0.000000 1.277564 1.647399 -0.339206 -4.178965 0.589622 1.818622 0.000000 0.000000 0.000000 0.000000 0.000000 0.000000 1.001954 -1.184114 -17.575904 -2.778245 2.069822 -0.300808 3.836964 -7.946380 -1.895407 0.000000 0.000000 0.000000 -0.066151 0.230089 -17.811694 -0.000000 0.000000 0.000000 -0.000000 0.000000 0.000000 0.000000 0.000000 0.000000
58.486352 66.941002 339.035376 0.166609 -0.214151 17.761152 -0.093342 0.254767 -17.760633 -0.000000 0.000000 0.000000 -0.000000 0.000000 0.000000 0.000000 0.000000 0.000000 -0.000000 0.000000 0.000000 -0.000000 0.000000 0.000000 0.816486 2.492944 -0.320873 -3.620154 -16.066286 2.620297 0.000000 0.000000 0.000000 0.000000 0.000000 0.000000 -0.000000 0.000000 0.000000 -0.000000 0.000000 0.000000 1.321032 1.013437 -0.267418 -3.541708 0.422544 1.375156 0.000000 0.000000 0.000000 0.000000 0.000000 0.000000 1.130546 -0.861587 -17.488701 -2.830933 1.395749 -0.411572 3.955295 -7.902986 -2.022657 0.000000 0.000000 0.000000 -0.806909 1.054569 -17.735032 0.923311 -0.544342 -0.013062 -0.000000 0.000000 0.000000 0.000000 0.000000 0.000000
58.477479 66.930374 339.018287 0.213662 -0.233200 17.698806 -0.132655 0.287117 -17.698038 -0.000000 0.000000 0.000000 -0.860988 0.228146 0.009088 0.000000 0.000000 0.000000 -0.000000 0.000000 0.000000 -0.000000 0.000000 0.000000 0.627755 3.160705 -0.398212 -6.296000 -16.732272 3.296480 0.000000 0.000000 0.000000 0.000000 0.000000 0.000000 -0.000000 0.000000 0.000000 -0.000000 0.000000 0.000000 1.270630 1.036568 -0.264280 -3.141170 0.424575 1.230058 0.000000 0.000000 0.000000 0.000000 0.000000 0.000000 1.333277 -0.950467 -17.370896 -3.264000 1.603719 -0.466935 4.037429 -7.742102 -2.027485 0.000000 0.000000 0.000000 -0.832072 1.569145 -17.550242 1.603502 -1.695568 -0.000164 -0.549880 0.684192 -0.110731 0.000000 0.000000 0.000000
58.471965 66.917387 338.987148 0.265075 -0.244974 17.621672 -0.178479 0.313723 -17.620617 -0.000000 0.000000 0.000000 -1.100740 0.307305 0.013589 0.000000 0.000000 0.000000 -0.000000 0.000000 0.000000 -0.000000 0.000000 0.000000 0.851943 4.042753 -0.517825 -8.431226 -17.137078 3.656414 0.000000 0.000000 0.000000 0.000000 0.000000 0.000000 -0.000000 0.000000 0.000000 -0.000000 0.000000 0.000000 1.308056 1.547956 -0.330885 -3.869252 1.493178 1.805585 0.000000 0.000000 0.000000 0.000000 0.000000 0.000000 1.611639 -1.631648 -17.217068 -4.244311 2.958306 -0.449394 4.226460 -7.576044 -1.962731 0.000000 0.000000 0.000000 -1.281604 1.279268 -17.641650 1.343893 -0.585586 0.043236 -0.000000 0.000000 0.000000 0.000000 0.000000 0.000000
58.479292 66.893351 338.968098 0.332675 -0.251336 17.433350 -0.242100 0.339456 -17.431903 -0.000000 0.000000 0.000000 -1.399891 0.368523 0.016312 0.000000 0.000000 0.000000 -0.000000 0.000000 0.000000 -0.000000 0.000000 0.000000 1.960437 2.524510 -0.359885 -11.835621 -13.425731 4.112036 0.000000 0.000000 0.000000 0.000000 0.000000 0.000000 -0.000000 0.000000 0.000000 -0.000000 0.000000 0.000000 0.982883 -0.979188 0.009641 -4.236554 4.964226 2.105806 0.000000 0.000000 0.000000 0.000000 0.000000 0.000000 1.655378 -2.128578 -17.003489 -4.733170 3.993591 -0.373774 4.005312 -6.666096 -1.835742 0.000000 0.000000 0.000000 -1.057484 1.423734 -17.356127 1.101781 -0.791511 -0.055619 -0.000000 0.000000 0.000000 0.000000 0.000000 0.000000
58.458136 66.874312 338.948533 0.327077 -0.240913 17.298334 -0.240653 0.327269 -17.296959 -0.000000 0.000000 0.000000 -1.666717 0.386870 0.015681 0.000000 0.000000 0.000000 0.443255 -0.737323 0.073606 -0.442344 0.737870 -0.067906 2.955016 2.559747 -0.395532 -15.067347 -11.101959 4.596329 0.000000 0.000000 0.000000 0.000000 0.000000 0.000000 -0.024307 -0.975998 -0.155972 0.041019 1.960104 0.211120 1.367221 -3.225308 0.091365 -4.622854 7.118881 2.238286 0.000000 0.000000 0.000000 0.000000 0.000000 0.000000 1.661800 -2.272996 -16.867958 -4.763352 4.251401 -0.337850 3.381092 -4.865288 -1.641808 0.000000 0.000000 0.000000 -0.484553 1.572563 -17.052473 0.598444 -1.118989 -0.234597 0.272613 0.061982 -1.027029 0.000000 0.000000 0.000000
58.490030 66.861430 338.935165 0.429389 -0.260249 16.644700 0.193957 -0.240522 -16.625064 0.082160 -0.028364 0.030312 -2.745627 0.882041 -0.013621 0.000000 0.000000 0.000000 -0.237675 -0.428921 0.039402 -0.527656 0.893385 -0.080958 3.501196 3.081731 -0.490767 -16.995877 -10.151594 4.860700 0.000000 0.000000 0.000000 0.000000 0.000000 0.000000 -0.450828 -1.323654 -0.331152 -0.394303 2.841139 0.376285 2.721561 -3.201136 -0.033827 -5.504828 4.037665 1.720995 0.000000 0.000000 0.000000 0.000000 0.000000 0.000000 1.489469 -1.997156 -16.240489 -4.435885 3.801139 -0.352514 2.500203 -2.299770 -1.472132 0.000000 0.000000 0.000000 -0.949637 1.308224 -16.552034 0.854050 -0.722454 -0.076224 0.402946 0.118585 -1.545906 0.000000 0.000000 0.000000
